<?xml version="1.0" encoding="UTF-8"?>
<!DOCTYPE svg PUBLIC "-//W3C//DTD SVG 1.1//EN" "http://www.w3.org/Graphics/SVG/1.1/DTD/svg11.dtd">
<!-- Creator: CorelDRAW -->
<svg xmlns="http://www.w3.org/2000/svg" xml:space="preserve" width="2093px" height="1359px" version="1.1" style="shape-rendering:geometricPrecision; text-rendering:geometricPrecision; image-rendering:optimizeQuality; fill-rule:evenodd; clip-rule:evenodd"
viewBox="0 0 2127.053 1380.933"
 xmlns:xlink="http://www.w3.org/1999/xlink"
 xmlns:xodm="http://www.corel.com/coreldraw/odm/2003">
 <defs>
  <style type="text/css">
   <![CDATA[
    .str0 {stroke:#9A9DA3;stroke-width:2.033;stroke-miterlimit:2.61313}
    .str1 {stroke:#282829;stroke-width:3.05;stroke-miterlimit:2.61313}
    .fil2 {fill:#C58C60}
    .fil1 {fill:#B97758}
    .fil3 {fill:#282829}
    .fil0 {fill:#919499}
   ]]>
  </style>
 </defs>
<symbol id="Symbol3" viewBox="1024.136 660.987 44.727 23.889">
 <rect class="fil0 str0" x="1025.153" y="662.003" width="42.694" height="21.855"/>
</symbol>
<symbol id="Symbol7" viewBox="1024.136 660.733 44.727 24.396">
 <rect class="fil1" x="1024.136" y="660.733" width="44.727" height="24.396"/>
</symbol>
<symbol id="Symbol8" viewBox="960.604 608.891 171.79 128.081">
 <rect class="fil2" x="960.604" y="608.891" width="171.79" height="128.081"/>
</symbol>
<symbol id="Symbol2" viewBox="1023.628 660.225 45.743 25.413">
 <rect class="fil3 str1" x="1025.154" y="661.749" width="42.694" height="22.363"/>
</symbol>
 <g id="Layer_x0020_1">
  <metadata id="CorelCorpID_0Corel-Layer"/>
  <use transform="scale(12.3787 10.3889)" x="0.041" y="2.348" width="171.79" height="128.081" xlink:href="#Symbol8"/>
  <use x="137.737" y="1332.14" width="44.727" height="23.889" xlink:href="#Symbol3"/>
  <use x="959.079" y="1283.347" width="44.727" height="23.889" xlink:href="#Symbol3"/>
  <use transform="scale(1.04762 1)" x="1263.773" y="71.664" width="44.727" height="23.889" xlink:href="#Symbol3"/>
  <use transform="scale(2.07143 0.976735)" x="616.567" y="0.024" width="44.727" height="23.889" xlink:href="#Symbol3"/>
  <use transform="scale(1.0238 1)" x="1694.321" y="71.664" width="44.727" height="23.889" xlink:href="#Symbol3"/>
  <use transform="scale(1.07143 1)" x="1574.374" y="121.473" width="44.727" height="23.889" xlink:href="#Symbol3"/>
  <use transform="scale(1.0238 1)" x="1604.962" y="47.267" width="44.727" height="23.889" xlink:href="#Symbol3"/>
  <use transform="scale(1.0238 1)" x="266.564" y="47.267" width="44.727" height="23.889" xlink:href="#Symbol3"/>
  <use transform="scale(1.02272 4.95834)" x="0.497" y="248.882" width="44.727" height="24.396" xlink:href="#Symbol7"/>
  <use transform="scale(1.02272 2.95834)" x="45.224" y="408.894" width="44.727" height="24.396" xlink:href="#Symbol7"/>
  <use transform="scale(1.02272 1)" x="89.95" y="1185.254" width="44.727" height="24.396" xlink:href="#Symbol7"/>
  <use transform="scale(4.06817 6)" x="33.857" y="197.542" width="44.727" height="24.396" xlink:href="#Symbol7"/>
  <use transform="scale(3.06817 1.04166)" x="59.47" y="1277.4" width="44.727" height="24.396" xlink:href="#Symbol7"/>
  <use transform="scale(1.02272 4)" x="312.59" y="296.313" width="44.727" height="24.396" xlink:href="#Symbol7"/>
  <use transform="scale(1.02272 5)" x="357.317" y="237.05" width="44.727" height="24.396" xlink:href="#Symbol7"/>
  <use transform="scale(1.02272 6)" x="402.044" y="201.608" width="44.727" height="24.396" xlink:href="#Symbol7"/>
  <use transform="scale(2.02271 4.95834)" x="225.896" y="248.882" width="44.727" height="24.396" xlink:href="#Symbol7"/>
  <use transform="scale(9.2045 3.95834)" x="59.47" y="317.921" width="44.727" height="24.396" xlink:href="#Symbol7"/>
  <use transform="scale(10.2272 1.97918)" x="84.732" y="623.769" width="44.727" height="24.396" xlink:href="#Symbol7"/>
  <use transform="scale(6.09089 2.95834)" x="172.481" y="433.634" width="44.727" height="24.396" xlink:href="#Symbol7"/>
  <use transform="scale(4.08248 5.95834)" x="324.066" y="203.018" width="44.727" height="24.396" xlink:href="#Symbol7"/>
  <use transform="scale(4.11361 1.95834)" x="332.733" y="605.752" width="44.727" height="24.396" xlink:href="#Symbol7"/>
  <use transform="scale(5.09088 4.95834)" x="304.801" y="248.882" width="44.727" height="24.396" xlink:href="#Symbol7"/>
  <use transform="scale(0.999987 4.00001)" x="1734.702" y="296.312" width="44.727" height="24.396" xlink:href="#Symbol7"/>
  <use transform="scale(3.0909 5.95836)" x="575.691" y="190.904" width="44.727" height="24.396" xlink:href="#Symbol7"/>
  <use transform="scale(1.04545 0.999998)" x="1745.794" y="1113.082" width="44.727" height="24.396" xlink:href="#Symbol7"/>
  <use transform="scale(2.04544 2.95834)" x="892.8" y="433.635" width="44.727" height="24.396" xlink:href="#Symbol7"/>
  <use transform="scale(1.02272 6.91667)" x="1875.041" y="171.508" width="44.727" height="24.396" xlink:href="#Symbol7"/>
  <use transform="scale(1.99999 4.95833)" x="981.701" y="248.883" width="44.727" height="24.396" xlink:href="#Symbol7"/>
  <use transform="scale(0.977266 1.99999)" x="2055.876" y="11.69" width="44.727" height="24.396" xlink:href="#Symbol7"/>
  <use transform="scale(3.0999 1.04166)" x="603.532" y="22.445" width="44.727" height="24.396" xlink:href="#Symbol7"/>
  <use transform="scale(0.977266 1.99999)" x="1869.687" y="11.69" width="44.727" height="24.396" xlink:href="#Symbol7"/>
  <use transform="scale(1.04545 2.95833)" x="1703.024" y="7.903" width="44.727" height="24.396" xlink:href="#Symbol7"/>
  <use transform="scale(0.999989 2.95833)" x="1643.211" y="24.052" width="44.727" height="24.396" xlink:href="#Symbol7"/>
  <use transform="scale(1.02271 0.958339)" x="1651.429" y="151.68" width="44.727" height="24.396" xlink:href="#Symbol7"/>
  <use transform="scale(1.02271 0.999997)" x="1696.157" y="120.965" width="44.727" height="24.396" xlink:href="#Symbol7"/>
  <use transform="scale(0.999989 2.95833)" x="1598.484" y="8.246" width="44.727" height="24.396" xlink:href="#Symbol7"/>
  <use transform="scale(3.06817 1.95834)" x="446.438" y="12.457" width="44.727" height="24.396" xlink:href="#Symbol7"/>
  <use transform="scale(2.04545 0.958339)" x="736.747" y="25.456" width="44.727" height="24.396" xlink:href="#Symbol7"/>
  <use transform="scale(2.04545 0.958339)" x="669.657" y="75.31" width="44.727" height="24.396" xlink:href="#Symbol7"/>
  <use transform="scale(1.02272 1.04169)" x="1339.315" y="91.727" width="44.727" height="24.396" xlink:href="#Symbol7"/>
  <use transform="scale(2.04546 2.04168)" x="624.928" y="46.8" width="44.727" height="24.396" xlink:href="#Symbol7"/>
  <use transform="scale(1.02272 1.04169)" x="1205.135" y="91.727" width="44.727" height="24.396" xlink:href="#Symbol7"/>
  <use transform="scale(1.02272 1.95836)" x="1249.862" y="24.395" width="44.727" height="24.396" xlink:href="#Symbol7"/>
  <use transform="scale(5.11362 2.95836)" x="205.245" y="8.246" width="44.727" height="24.396" xlink:href="#Symbol7"/>
  <use transform="scale(14.2954 2.95836)" x="25.563" y="8.246" width="44.727" height="24.396" xlink:href="#Symbol7"/>
  <use transform="scale(1.02272 1.95836)" x="982.495" y="12.457" width="44.727" height="24.396" xlink:href="#Symbol7"/>
  <use transform="scale(1.06818 1.99999)" x="297.383" y="23.38" width="44.727" height="24.396" xlink:href="#Symbol7"/>
  <use transform="scale(2.06817 1.99999)" x="154.578" y="47.776" width="44.727" height="24.396" xlink:href="#Symbol7"/>
  <use transform="scale(1.02272 1.04166)" x="312.59" y="138.572" width="44.727" height="24.396" xlink:href="#Symbol7"/>
  <use transform="scale(1.02272 3.99999)" x="267.863" y="24.142" width="44.727" height="24.396" xlink:href="#Symbol7"/>
  <use transform="scale(1.04545 4.04165)" x="218.287" y="29.678" width="44.727" height="24.396" xlink:href="#Symbol7"/>
  <use transform="scale(1 7.95832)" x="183.48" y="3.065" width="44.727" height="24.396" xlink:href="#Symbol7"/>
  <use transform="scale(1.04545 5.95833)" x="130.777" y="4.094" width="44.727" height="24.396" xlink:href="#Symbol7"/>
  <use transform="scale(1.02272 3.95831)" x="88.956" y="6.163" width="44.727" height="24.396" xlink:href="#Symbol7"/>
  <use transform="scale(1 1.99999)" x="46.251" y="23.888" width="44.727" height="24.396" xlink:href="#Symbol7"/>
  <use transform="scale(1.02382 1)" x="-0.036" y="23.888" width="45.743" height="25.413" xlink:href="#Symbol2"/>
  <use transform="scale(1.02382 3.27276)" x="222.366" y="5.309" width="45.743" height="25.413" xlink:href="#Symbol2"/>
  <use transform="scale(1.02382 1)" x="265.059" y="71.665" width="45.743" height="25.413" xlink:href="#Symbol2"/>
  <use transform="scale(1.02382 1.95455)" x="311.723" y="-0.485" width="45.743" height="25.413" xlink:href="#Symbol2"/>
  <use transform="scale(21.2857 0.977264)" x="15.738" y="0.036" width="45.743" height="25.413" xlink:href="#Symbol2"/>
  <use transform="scale(6.34525 0.977264)" x="214.505" y="0.036" width="45.743" height="25.413" xlink:href="#Symbol2"/>
  <use transform="scale(1.04761 3.06818)" x="1654.32" y="-1.028" width="45.743" height="25.413" xlink:href="#Symbol2"/>
  <use transform="scale(1.0238 3.20455)" x="1648.141" y="13.543" width="45.743" height="25.413" xlink:href="#Symbol2"/>
  <use transform="scale(4.16666 1)" x="32.02" y="1355.52" width="45.743" height="25.413" xlink:href="#Symbol2"/>
  <use transform="scale(1.0238 4.27278)" x="43.651" y="298.948" width="45.743" height="25.413" xlink:href="#Symbol2"/>
  <use transform="scale(1.04761 4.27278)" x="86.289" y="282.057" width="45.743" height="25.413" xlink:href="#Symbol2"/>
  <use transform="scale(1.04761 1.86364)" x="304.61" y="687.919" width="45.743" height="25.413" xlink:href="#Symbol2"/>
  <use transform="scale(1.04761 3.18181)" x="348.274" y="409.322" width="45.743" height="25.413" xlink:href="#Symbol2"/>
  <use transform="scale(14.0714 1)" x="24.517" y="1354.503" width="45.743" height="25.413" xlink:href="#Symbol2"/>
  <use transform="scale(10.5714 1)" x="98.045" y="1354.503" width="45.743" height="25.413" xlink:href="#Symbol2"/>
  <use transform="scale(0.952376 3.18181)" x="1007.648" y="409.322" width="45.743" height="25.413" xlink:href="#Symbol2"/>
  <use transform="scale(1.04762 3.04545)" x="957.619" y="420.375" width="45.743" height="25.413" xlink:href="#Symbol2"/>
  <use transform="scale(1.04762 5.22731)" x="1435.979" y="234.941" width="45.743" height="25.413" xlink:href="#Symbol2"/>
  <use transform="scale(1.04762 3.04545)" x="1697.961" y="420.375" width="45.743" height="25.413" xlink:href="#Symbol2"/>
  <use transform="scale(5.24993 1)" x="294.429" y="1354.503" width="45.743" height="25.413" xlink:href="#Symbol2"/>
 </g>
</svg>
