<?xml version="1.0" encoding="UTF-8"?>
<!DOCTYPE svg PUBLIC "-//W3C//DTD SVG 1.1//EN" "http://www.w3.org/Graphics/SVG/1.1/DTD/svg11.dtd">
<!-- Creator: CorelDRAW -->
<svg xmlns="http://www.w3.org/2000/svg" xml:space="preserve" width="1678px" height="3164px" version="1.1" style="shape-rendering:geometricPrecision; text-rendering:geometricPrecision; image-rendering:optimizeQuality; fill-rule:evenodd; clip-rule:evenodd"
viewBox="0 0 1678 3163.908"
 xmlns:xlink="http://www.w3.org/1999/xlink"
 xmlns:xodm="http://www.corel.com/coreldraw/odm/2003">
 <defs>
  <style type="text/css">
   <![CDATA[
    .str0 {stroke:#282829;stroke-width:5;stroke-miterlimit:2.61313}
    .str1 {stroke:#9A9DA3;stroke-width:2;stroke-miterlimit:2.61313}
    .str2 {stroke:#282829;stroke-width:3;stroke-miterlimit:2.61313}
    .fil4 {fill:#DEAF7D}
    .fil1 {fill:#C58C60}
    .fil2 {fill:#B97758}
    .fil0 {fill:#282829}
    .fil5 {fill:#919499}
    .fil3 {fill:#CFA170}
   ]]>
  </style>
 </defs>
<symbol id="Symbol1" viewBox="816.5 783.477 44.999 1596.955">
 <rect class="fil0 str0" x="819" y="785.971" width="39.999" height="1591.954"/>
</symbol>
<symbol id="Symbol8" viewBox="754.502 1518.956 168.995 125.996">
 <rect class="fil1" x="754.502" y="1518.956" width="168.995" height="125.996"/>
</symbol>
<symbol id="Symbol7" viewBox="817 1569.954 43.999 23.999">
 <rect class="fil2" x="817" y="1569.954" width="43.999" height="23.999"/>
</symbol>
<symbol id="Symbol6" viewBox="817.001 1557.954 43.998 47.999">
 <rect class="fil3" x="817.001" y="1557.954" width="43.998" height="47.999"/>
</symbol>
<symbol id="Symbol4" viewBox="817 1568.454 43.999 26.999">
 <rect class="fil4" x="817" y="1568.454" width="43.999" height="26.999"/>
</symbol>
<symbol id="Symbol3" viewBox="817 1570.203 44 23.5">
 <rect class="fil5 str1" x="818" y="1571.203" width="41.999" height="21.5"/>
</symbol>
<symbol id="Symbol2" viewBox="816.501 1569.454 44.999 24.999">
 <rect class="fil0 str2" x="818.001" y="1570.954" width="41.999" height="21.999"/>
</symbol>
 <g id="Layer_x0020_1">
  <metadata id="CorelCorpID_0Corel-Layer"/>
  <g id="_2433569113264">
   <use transform="matrix(3.27844E-13 -12.3787 10.3889 2.75145E-13 -15575.8 11961.7)" x="754.502" y="1518.956" width="168.995" height="125.996" xlink:href="#Symbol8"/>
   <use transform="matrix(2.64845E-14 -1 1.01476 2.68755E-14 -758.056 3977.41)" x="816.5" y="783.477" width="44.999" height="1596.955" xlink:href="#Symbol1"/>
   <use transform="matrix(2.64845E-14 -1 1.01319 2.68339E-14 -756.822 3527.92)" x="816.5" y="783.477" width="44.999" height="1596.955" xlink:href="#Symbol1"/>
   <use transform="matrix(2.64845E-14 -1 2.02274 5.35712E-14 -3139.1 3932.41)" x="816.501" y="1569.454" width="44.999" height="24.999" xlink:href="#Symbol2"/>
   <use transform="matrix(2.86917E-14 -1.08334 1 2.64845E-14 -1532.43 3958.58)" x="816.501" y="1569.454" width="44.999" height="24.999" xlink:href="#Symbol2"/>
   <use transform="matrix(2.64845E-14 -1 3.04547 8.06579E-14 -4769.77 3796.91)" x="816.501" y="1569.454" width="44.999" height="24.999" xlink:href="#Symbol2"/>
   <use transform="matrix(2.64845E-14 -1 4.13639 1.0955E-13 -6483.56 3752.92)" x="816.501" y="1569.454" width="44.999" height="24.999" xlink:href="#Symbol2"/>
   <use transform="matrix(2.86917E-14 -1.08334 1 2.64845E-14 -1556.43 3779.09)" x="816.501" y="1569.454" width="44.999" height="24.999" xlink:href="#Symbol2"/>
   <use transform="matrix(2.64845E-14 -1 3.04547 8.06579E-14 -4744.77 3662.92)" x="816.501" y="1569.454" width="44.999" height="24.999" xlink:href="#Symbol2"/>
   <use transform="matrix(2.90071E-14 -1.09525 1.97487 5.23036E-14 -3039.36 3699.83)" x="816.501" y="1569.454" width="44.999" height="24.999" xlink:href="#Symbol2"/>
   <use transform="matrix(2.86917E-14 -1.08334 1 2.64845E-14 -1532.43 3642.09)" x="816.501" y="1569.454" width="44.999" height="24.999" xlink:href="#Symbol2"/>
   <use transform="matrix(2.64845E-14 -1 4.22731 1.11958E-13 -5102.43 3887.91)" x="816.501" y="1569.454" width="44.999" height="24.999" xlink:href="#Symbol2"/>
   <use transform="matrix(2.86917E-14 -1.08334 1 2.64845E-14 63.5232 4004.08)" x="816.501" y="1569.454" width="44.999" height="24.999" xlink:href="#Symbol2"/>
   <use transform="matrix(2.64845E-14 -1 2.13639 5.65814E-14 -1817.69 3797.91)" x="816.501" y="1569.454" width="44.999" height="24.999" xlink:href="#Symbol2"/>
   <use transform="matrix(2.96376E-14 -1.11905 2.09095 5.53777E-14 -1699.3 3944.3)" x="816.501" y="1569.454" width="44.999" height="24.999" xlink:href="#Symbol2"/>
   <use transform="matrix(2.86917E-14 -1.08334 1 2.64845E-14 60.5232 3642.09)" x="816.501" y="1569.454" width="44.999" height="24.999" xlink:href="#Symbol2"/>
   <use transform="matrix(1.11613E-13 -4.21429 1 2.64845E-14 86.5227 6383.2)" x="816.501" y="1569.454" width="44.999" height="24.999" xlink:href="#Symbol2"/>
   <use transform="matrix(2.86917E-14 -1.08334 1 2.64845E-14 -1532.43 3958.58)" x="816.501" y="1569.454" width="44.999" height="24.999" xlink:href="#Symbol2"/>
   <use transform="matrix(2.64845E-14 -1 1.0465 2.77161E-14 -1630.24 3841.91)" x="817" y="1570.203" width="44" height="23.5" xlink:href="#Symbol3"/>
   <use transform="matrix(2.7115E-14 -1.0238 1.0465 2.77161E-14 -1630.24 3682.39)" x="817" y="1570.203" width="44" height="23.5" xlink:href="#Symbol3"/>
   <use transform="matrix(2.64845E-14 -1 1.0465 2.77161E-14 -1606.24 3617.92)" x="817" y="1570.203" width="44" height="23.5" xlink:href="#Symbol3"/>
   <use transform="matrix(2.64845E-14 -1 2.62962 6.96441E-14 -4086.91 3707.92)" x="817" y="1568.454" width="43.999" height="26.999" xlink:href="#Symbol4"/>
   <use transform="matrix(2.64845E-14 -1 1.74073 4.61023E-14 -2668.73 3572.92)" x="817" y="1568.454" width="43.999" height="26.999" xlink:href="#Symbol4"/>
   <use transform="matrix(1.07744E-13 -4.06817 56.3333 1.49196E-12 -88247.7 6214.61)" x="817" y="1568.454" width="43.999" height="26.999" xlink:href="#Symbol4"/>
   <use transform="matrix(2.70867E-14 -1.02274 11.3704 3.01139E-13 -16485.4 3771.49)" x="817" y="1568.454" width="43.999" height="26.999" xlink:href="#Symbol4"/>
   <use transform="matrix(8.00551E-14 -3.02271 0.96297 2.55038E-14 119.102 5360.47)" x="817" y="1568.454" width="43.999" height="26.999" xlink:href="#Symbol4"/>
   <use transform="matrix(2.64845E-14 -1 1 2.64845E-14 -1508.18 3887.91)" x="817" y="1570.203" width="44" height="23.5" xlink:href="#Symbol3"/>
   <use transform="matrix(2.77455E-14 -1.04761 1.02324 2.71E-14 -1522.19 3971.85)" x="817" y="1570.203" width="44" height="23.5" xlink:href="#Symbol3"/>
   <use transform="matrix(2.64845E-14 -1 1 2.64845E-14 15.7743 3796.91)" x="817" y="1570.203" width="44" height="23.5" xlink:href="#Symbol3"/>
   <use transform="matrix(2.64845E-14 -1 1 2.64845E-14 -1520.43 3841.91)" x="817.001" y="1557.954" width="43.998" height="47.999" xlink:href="#Symbol6"/>
   <use transform="matrix(1.20362E-15 -0.0454461 0.479171 1.26906E-14 -684.003 3064.04)" x="817.001" y="1557.954" width="43.998" height="47.999" xlink:href="#Symbol6"/>
   <use transform="matrix(2.70867E-14 -1.02274 0.479158 1.26903E-14 -660.985 3907.49)" x="817.001" y="1557.954" width="43.998" height="47.999" xlink:href="#Symbol6"/>
   <use transform="matrix(5.41731E-14 -2.04546 0.5 1.32423E-14 -695.455 4698.05)" x="817.001" y="1557.954" width="43.998" height="47.999" xlink:href="#Symbol6"/>
   <use transform="matrix(1.35434E-13 -5.11368 25.8542 6.84736E-13 -40172.1 7293.79)" x="817.001" y="1557.954" width="43.998" height="47.999" xlink:href="#Symbol6"/>
   <use transform="matrix(1.08949E-13 -4.11368 3.97916 1.05386E-13 -4853.86 6476.79)" x="817.001" y="1557.954" width="43.998" height="47.999" xlink:href="#Symbol6"/>
   <use transform="matrix(2.64849E-14 -1.00001 2 5.29691E-14 -1579.43 3932.92)" x="817.001" y="1557.954" width="43.998" height="47.999" xlink:href="#Symbol6"/>
   <use transform="matrix(2.64849E-14 -1.00001 0.979171 2.59329E-14 10.9757 3842.92)" x="817.001" y="1557.954" width="43.998" height="47.999" xlink:href="#Symbol6"/>
   <use transform="matrix(2.64845E-14 -1 1.01476 2.68755E-14 -759.056 1321.49)" x="816.5" y="783.477" width="44.999" height="1596.955" xlink:href="#Symbol1"/>
   <use transform="matrix(2.64845E-14 -1 1.01319 2.68339E-14 -757.821 871.998)" x="816.5" y="783.477" width="44.999" height="1596.955" xlink:href="#Symbol1"/>
   <use transform="matrix(2.64845E-14 -1 2.02274 5.35712E-14 -3140.1 1276.49)" x="816.501" y="1569.454" width="44.999" height="24.999" xlink:href="#Symbol2"/>
   <use transform="matrix(2.86917E-14 -1.08334 1 2.64845E-14 -1533.43 1302.66)" x="816.501" y="1569.454" width="44.999" height="24.999" xlink:href="#Symbol2"/>
   <use transform="matrix(2.64845E-14 -1 3.04547 8.06579E-14 -4770.77 1140.99)" x="816.501" y="1569.454" width="44.999" height="24.999" xlink:href="#Symbol2"/>
   <use transform="matrix(2.64845E-14 -1 4.13639 1.0955E-13 -6484.56 1096.99)" x="816.501" y="1569.454" width="44.999" height="24.999" xlink:href="#Symbol2"/>
   <use transform="matrix(2.86917E-14 -1.08334 1 2.64845E-14 -1557.43 1123.16)" x="816.501" y="1569.454" width="44.999" height="24.999" xlink:href="#Symbol2"/>
   <use transform="matrix(2.64845E-14 -1 3.04547 8.06579E-14 -4745.77 1006.99)" x="816.501" y="1569.454" width="44.999" height="24.999" xlink:href="#Symbol2"/>
   <use transform="matrix(2.90071E-14 -1.09525 1.97487 5.23036E-14 -3040.36 1043.91)" x="816.501" y="1569.454" width="44.999" height="24.999" xlink:href="#Symbol2"/>
   <use transform="matrix(2.86917E-14 -1.08334 1 2.64845E-14 -1533.43 986.168)" x="816.501" y="1569.454" width="44.999" height="24.999" xlink:href="#Symbol2"/>
   <use transform="matrix(2.64845E-14 -1 4.22731 1.11958E-13 -5103.43 1231.99)" x="816.501" y="1569.454" width="44.999" height="24.999" xlink:href="#Symbol2"/>
   <use transform="matrix(2.86917E-14 -1.08334 1 2.64845E-14 62.5234 1348.16)" x="816.501" y="1569.454" width="44.999" height="24.999" xlink:href="#Symbol2"/>
   <use transform="matrix(2.64845E-14 -1 2.13639 5.65814E-14 -1818.69 1141.99)" x="816.501" y="1569.454" width="44.999" height="24.999" xlink:href="#Symbol2"/>
   <use transform="matrix(2.96376E-14 -1.11905 2.09095 5.53777E-14 -1700.3 1288.37)" x="816.501" y="1569.454" width="44.999" height="24.999" xlink:href="#Symbol2"/>
   <use transform="matrix(2.86917E-14 -1.08334 1 2.64845E-14 59.5235 986.168)" x="816.501" y="1569.454" width="44.999" height="24.999" xlink:href="#Symbol2"/>
   <use transform="matrix(1.11613E-13 -4.21429 1 2.64845E-14 85.5229 3727.28)" x="816.501" y="1569.454" width="44.999" height="24.999" xlink:href="#Symbol2"/>
   <use transform="matrix(2.86917E-14 -1.08334 1 2.64845E-14 -1533.43 1302.66)" x="816.501" y="1569.454" width="44.999" height="24.999" xlink:href="#Symbol2"/>
   <use transform="matrix(2.64845E-14 -1 1.0465 2.77161E-14 -1631.24 1185.99)" x="817" y="1570.203" width="44" height="23.5" xlink:href="#Symbol3"/>
   <use transform="matrix(2.71154E-14 -1.02382 1.0465 2.77161E-14 -1631.24 1026.48)" x="817" y="1570.203" width="44" height="23.5" xlink:href="#Symbol3"/>
   <use transform="matrix(2.64845E-14 -1 1.0465 2.77161E-14 -1607.24 961.996)" x="817" y="1570.203" width="44" height="23.5" xlink:href="#Symbol3"/>
   <use transform="matrix(2.64845E-14 -1 2.62962 6.96441E-14 -4087.91 1051.99)" x="817" y="1568.454" width="43.999" height="26.999" xlink:href="#Symbol4"/>
   <use transform="matrix(2.64845E-14 -1 1.74073 4.61023E-14 -2669.73 916.997)" x="817" y="1568.454" width="43.999" height="26.999" xlink:href="#Symbol4"/>
   <use transform="matrix(1.07744E-13 -4.06817 56.3333 1.49196E-12 -88248.7 3558.69)" x="817" y="1568.454" width="43.999" height="26.999" xlink:href="#Symbol4"/>
   <use transform="matrix(2.70867E-14 -1.02274 11.3704 3.01139E-13 -16486.4 1115.57)" x="817" y="1568.454" width="43.999" height="26.999" xlink:href="#Symbol4"/>
   <use transform="matrix(8.00551E-14 -3.02271 0.96297 2.55038E-14 118.103 2704.55)" x="817" y="1568.454" width="43.999" height="26.999" xlink:href="#Symbol4"/>
   <use transform="matrix(2.64845E-14 -1 1 2.64845E-14 -1509.18 1231.99)" x="817" y="1570.203" width="44" height="23.5" xlink:href="#Symbol3"/>
   <use transform="matrix(2.77455E-14 -1.04761 1.02324 2.71E-14 -1523.19 1315.93)" x="817" y="1570.203" width="44" height="23.5" xlink:href="#Symbol3"/>
   <use transform="matrix(2.64845E-14 -1 1 2.64845E-14 14.7746 1140.99)" x="817" y="1570.203" width="44" height="23.5" xlink:href="#Symbol3"/>
   <use transform="matrix(2.64845E-14 -1 1 2.64845E-14 -1521.43 1185.99)" x="817.001" y="1557.954" width="43.998" height="47.999" xlink:href="#Symbol6"/>
   <use transform="matrix(1.20362E-15 -0.0454461 0.479171 1.26906E-14 -685.003 408.118)" x="817.001" y="1557.954" width="43.998" height="47.999" xlink:href="#Symbol6"/>
   <use transform="matrix(2.70867E-14 -1.02274 0.479158 1.26903E-14 -661.985 1251.56)" x="817.001" y="1557.954" width="43.998" height="47.999" xlink:href="#Symbol6"/>
   <use transform="matrix(5.41731E-14 -2.04546 0.5 1.32423E-14 -696.455 2042.13)" x="817.001" y="1557.954" width="43.998" height="47.999" xlink:href="#Symbol6"/>
   <use transform="matrix(1.35434E-13 -5.11368 25.8542 6.84736E-13 -40173.1 4637.87)" x="817.001" y="1557.954" width="43.998" height="47.999" xlink:href="#Symbol6"/>
   <use transform="matrix(1.08949E-13 -4.11368 3.97916 1.05386E-13 -4854.86 3820.87)" x="817.001" y="1557.954" width="43.998" height="47.999" xlink:href="#Symbol6"/>
   <use transform="matrix(2.64849E-14 -1.00001 2 5.29691E-14 -1580.43 1277)" x="817.001" y="1557.954" width="43.998" height="47.999" xlink:href="#Symbol6"/>
   <use transform="matrix(2.64849E-14 -1.00001 0.979171 2.59329E-14 9.97596 1187)" x="817.001" y="1557.954" width="43.998" height="47.999" xlink:href="#Symbol6"/>
   <use transform="matrix(2.64845E-14 -1 1 2.64845E-14 -79.2225 3303.93)" x="817" y="1570.203" width="44" height="23.5" xlink:href="#Symbol3"/>
   <use transform="matrix(2.64845E-14 -1 1 2.64845E-14 -127.221 2495.95)" x="817" y="1570.203" width="44" height="23.5" xlink:href="#Symbol3"/>
   <use transform="matrix(2.77458E-14 -1.04762 1 2.64845E-14 -1319.19 2175.92)" x="817" y="1570.203" width="44" height="23.5" xlink:href="#Symbol3"/>
   <use transform="matrix(5.48608E-14 -2.07143 0.976735 2.58684E-14 -1353.13 3058.39)" x="817" y="1570.203" width="44" height="23.5" xlink:href="#Symbol3"/>
   <use transform="matrix(2.7115E-14 -1.0238 1 2.64845E-14 -1319.19 1752.45)" x="817" y="1570.203" width="44" height="23.5" xlink:href="#Symbol3"/>
   <use transform="matrix(2.83763E-14 -1.07143 1 2.64845E-14 -1270.19 1838.4)" x="817" y="1570.203" width="44" height="23.5" xlink:href="#Symbol3"/>
   <use transform="matrix(2.7115E-14 -1.0238 1 2.64845E-14 -1343.19 1842.44)" x="817" y="1570.203" width="44" height="23.5" xlink:href="#Symbol3"/>
   <use transform="matrix(2.7115E-14 -1.0238 1 2.64845E-14 -1343.19 3190.4)" x="817" y="1570.203" width="44" height="23.5" xlink:href="#Symbol3"/>
   <use transform="matrix(2.64845E-14 -1 1 2.64845E-14 -1366.44 3482.92)" x="817" y="1569.954" width="43.999" height="23.999" xlink:href="#Symbol7"/>
   <use transform="matrix(5.35709E-14 -2.02272 11.9167 3.15607E-13 -18481.1 4318.49)" x="817" y="1569.954" width="43.999" height="23.999" xlink:href="#Symbol7"/>
   <use transform="matrix(2.64845E-14 -1 41.7083 1.10463E-12 -64967.7 3482.92)" x="817" y="1569.954" width="43.999" height="23.999" xlink:href="#Symbol7"/>
   <use transform="matrix(2.70863E-14 -1.02272 4.95834 1.31319E-13 -6389.88 3457.49)" x="817" y="1569.954" width="43.999" height="23.999" xlink:href="#Symbol7"/>
   <use transform="matrix(2.70863E-14 -1.02272 2.95834 7.83503E-14 -3273.98 3412.49)" x="817" y="1569.954" width="43.999" height="23.999" xlink:href="#Symbol7"/>
   <use transform="matrix(2.70863E-14 -1.02272 1 2.64845E-14 -223.469 3367.49)" x="817" y="1569.954" width="43.999" height="23.999" xlink:href="#Symbol7"/>
   <use transform="matrix(1.07744E-13 -4.06817 6 1.58907E-13 -8073.24 5810.62)" x="817" y="1569.954" width="43.999" height="23.999" xlink:href="#Symbol7"/>
   <use transform="matrix(8.1259E-14 -3.06817 1.04166 2.75878E-14 -145.875 4949.62)" x="817" y="1569.954" width="43.999" height="23.999" xlink:href="#Symbol7"/>
   <use transform="matrix(2.70863E-14 -1.02272 4 1.05938E-13 -4933.33 3143.5)" x="817" y="1569.954" width="43.999" height="23.999" xlink:href="#Symbol7"/>
   <use transform="matrix(2.70863E-14 -1.02272 5 1.32423E-13 -6503.29 3098.5)" x="817" y="1569.954" width="43.999" height="23.999" xlink:href="#Symbol7"/>
   <use transform="matrix(2.70863E-14 -1.02272 6 1.58907E-13 -8049.24 3053.5)" x="817" y="1569.954" width="43.999" height="23.999" xlink:href="#Symbol7"/>
   <use transform="matrix(5.35705E-14 -2.02271 4.95834 1.31319E-13 -6389.88 3825.49)" x="817" y="1569.954" width="43.999" height="23.999" xlink:href="#Symbol7"/>
   <use transform="matrix(2.43777E-13 -9.2045 3.95834 1.04835E-13 -4795.93 9604.02)" x="817" y="1569.954" width="43.999" height="23.999" xlink:href="#Symbol7"/>
   <use transform="matrix(2.70863E-13 -10.2272 1.97918 5.24178E-14 -1712.24 10125.6)" x="817" y="1569.954" width="43.999" height="23.999" xlink:href="#Symbol7"/>
   <use transform="matrix(1.61314E-13 -6.09089 2.95834 7.83503E-14 -3201.98 6565.21)" x="817" y="1569.954" width="43.999" height="23.999" xlink:href="#Symbol7"/>
   <use transform="matrix(1.08122E-13 -4.08248 5.95834 1.57804E-13 -7983.84 4656.34)" x="817" y="1569.954" width="43.999" height="23.999" xlink:href="#Symbol7"/>
   <use transform="matrix(1.08947E-13 -4.11361 1.95834 5.18658E-14 -1727.02 4636.79)" x="817" y="1569.954" width="43.999" height="23.999" xlink:href="#Symbol7"/>
   <use transform="matrix(1.3483E-13 -5.09088 4.95834 1.31319E-13 -6389.88 5255.22)" x="817" y="1569.954" width="43.999" height="23.999" xlink:href="#Symbol7"/>
   <use transform="matrix(2.64842E-14 -0.999987 4.00001 1.05938E-13 -4933.35 1732.96)" x="817" y="1569.954" width="43.999" height="23.999" xlink:href="#Symbol7"/>
   <use transform="matrix(8.18612E-14 -3.0909 5.95836 1.57804E-13 -8054.86 3397.24)" x="817" y="1569.954" width="43.999" height="23.999" xlink:href="#Symbol7"/>
   <use transform="matrix(2.76884E-14 -1.04545 0.999998 2.64845E-14 -294.465 1681.11)" x="817" y="1569.954" width="43.999" height="23.999" xlink:href="#Symbol7"/>
   <use transform="matrix(5.41724E-14 -2.04544 2.95834 7.83502E-14 -3201.97 2497.1)" x="817" y="1569.954" width="43.999" height="23.999" xlink:href="#Symbol7"/>
   <use transform="matrix(2.70864E-14 -1.02272 6.91667 1.83185E-13 -9511.37 1571.54)" x="817" y="1569.954" width="43.999" height="23.999" xlink:href="#Symbol7"/>
   <use transform="matrix(5.29688E-14 -1.99999 4.95833 1.31319E-13 -6389.87 2324.97)" x="817" y="1569.954" width="43.999" height="23.999" xlink:href="#Symbol7"/>
   <use transform="matrix(5.89883E-14 -2.22727 12.875 3.40988E-13 -19008.6 2422.66)" x="817" y="1569.954" width="43.999" height="23.999" xlink:href="#Symbol7"/>
   <use transform="matrix(3.25037E-14 -1.22727 36.75 9.73307E-13 -57373.3 1560.66)" x="817" y="1569.954" width="43.999" height="23.999" xlink:href="#Symbol7"/>
   <use transform="matrix(5.89883E-14 -2.22727 4.95833 1.31319E-13 -7580.84 2422.66)" x="817" y="1569.954" width="43.999" height="23.999" xlink:href="#Symbol7"/>
   <use transform="matrix(2.58824E-14 -0.977266 1.99999 5.29689E-14 -2936.38 1444.41)" x="817" y="1569.954" width="43.999" height="23.999" xlink:href="#Symbol7"/>
   <use transform="matrix(8.20995E-14 -3.0999 1.04166 2.75878E-14 -1431.83 3314.6)" x="817" y="1569.954" width="43.999" height="23.999" xlink:href="#Symbol7"/>
   <use transform="matrix(2.58824E-14 -0.977266 1.99999 5.29689E-14 -2936.38 1623.4)" x="817" y="1569.954" width="43.999" height="23.999" xlink:href="#Symbol7"/>
   <use transform="matrix(2.76882E-14 -1.04545 2.95833 7.83501E-14 -4440.93 1725.11)" x="817" y="1569.954" width="43.999" height="23.999" xlink:href="#Symbol7"/>
   <use transform="matrix(2.64842E-14 -0.999989 2.95833 7.83501E-14 -4393.93 1822.96)" x="817" y="1569.954" width="43.999" height="23.999" xlink:href="#Symbol7"/>
   <use transform="matrix(2.7086E-14 -1.02271 0.958339 2.53812E-14 -1181.03 1796.53)" x="817" y="1569.954" width="43.999" height="23.999" xlink:href="#Symbol7"/>
   <use transform="matrix(2.7086E-14 -1.02271 0.999997 2.64845E-14 -1270.43 1751.53)" x="817" y="1569.954" width="43.999" height="23.999" xlink:href="#Symbol7"/>
   <use transform="matrix(2.64842E-14 -0.999989 2.95833 7.83501E-14 -4439.93 1866.96)" x="817" y="1569.954" width="43.999" height="23.999" xlink:href="#Symbol7"/>
   <use transform="matrix(8.12592E-14 -3.06817 1.95834 5.18656E-14 -2869.98 3781.66)" x="817" y="1569.954" width="43.999" height="23.999" xlink:href="#Symbol7"/>
   <use transform="matrix(5.41728E-14 -2.04545 0.958339 2.53812E-14 -1300.03 2811.1)" x="817" y="1569.954" width="43.999" height="23.999" xlink:href="#Symbol7"/>
   <use transform="matrix(5.41728E-14 -2.04545 0.958339 2.53812E-14 -1253.03 2946.1)" x="817" y="1569.954" width="43.999" height="23.999" xlink:href="#Symbol7"/>
   <use transform="matrix(2.70864E-14 -1.02272 1.04169 2.75888E-14 -1360.89 2110.53)" x="817" y="1569.954" width="43.999" height="23.999" xlink:href="#Symbol7"/>
   <use transform="matrix(5.4173E-14 -2.04546 2.04168 5.40729E-14 -2930.83 3036.1)" x="817" y="1569.954" width="43.999" height="23.999" xlink:href="#Symbol7"/>
   <use transform="matrix(2.70864E-14 -1.02272 1.04169 2.75888E-14 -1360.89 2245.53)" x="817" y="1569.954" width="43.999" height="23.999" xlink:href="#Symbol7"/>
   <use transform="matrix(2.70864E-14 -1.02272 1.95836 5.18663E-14 -2847.02 2200.53)" x="817" y="1569.954" width="43.999" height="23.999" xlink:href="#Symbol7"/>
   <use transform="matrix(1.35432E-13 -5.11362 2.95836 7.83508E-14 -4439.97 5767.79)" x="817" y="1569.954" width="43.999" height="23.999" xlink:href="#Symbol7"/>
   <use transform="matrix(3.78606E-13 -14.2954 2.95836 7.83508E-14 -4439.97 13942.3)" x="817" y="1569.954" width="43.999" height="23.999" xlink:href="#Symbol7"/>
   <use transform="matrix(2.70864E-14 -1.02272 1.95836 5.18663E-14 -2870.02 2469.52)" x="817" y="1569.954" width="43.999" height="23.999" xlink:href="#Symbol7"/>
   <use transform="matrix(2.82904E-14 -1.06818 1.99999 5.29689E-14 -2913.38 3182.64)" x="817" y="1569.954" width="43.999" height="23.999" xlink:href="#Symbol7"/>
   <use transform="matrix(5.47746E-14 -2.06817 1.99999 5.29689E-14 -2865.38 3997.63)" x="817" y="1569.954" width="43.999" height="23.999" xlink:href="#Symbol7"/>
   <use transform="matrix(2.70864E-14 -1.02272 1.04166 2.75878E-14 -1312.84 3143.5)" x="817" y="1569.954" width="43.999" height="23.999" xlink:href="#Symbol7"/>
   <use transform="matrix(2.70864E-14 -1.02272 3.99999 1.05938E-13 -6004.28 3188.5)" x="817" y="1569.954" width="43.999" height="23.999" xlink:href="#Symbol7"/>
   <use transform="matrix(2.76882E-14 -1.04545 4.04165 1.07041E-13 -6046.69 3252.06)" x="817" y="1569.954" width="43.999" height="23.999" xlink:href="#Symbol7"/>
   <use transform="matrix(2.64846E-14 -1 7.95832 2.10772E-13 -12289.7 3258.93)" x="817" y="1569.954" width="43.999" height="23.999" xlink:href="#Symbol7"/>
   <use transform="matrix(2.76882E-14 -1.04545 5.95833 1.57804E-13 -9149.78 3342.06)" x="817" y="1569.954" width="43.999" height="23.999" xlink:href="#Symbol7"/>
   <use transform="matrix(2.70864E-14 -1.02272 3.95831 1.04834E-13 -6009.84 3368.49)" x="817" y="1569.954" width="43.999" height="23.999" xlink:href="#Symbol7"/>
   <use transform="matrix(2.64846E-14 -1 1.99999 5.29689E-14 -2912.38 3393.93)" x="817" y="1569.954" width="43.999" height="23.999" xlink:href="#Symbol7"/>
   <use transform="matrix(1.96742E-13 -7.42857 0.954554 2.52809E-14 -1318.04 8742.5)" x="816.501" y="1569.454" width="44.999" height="24.999" xlink:href="#Symbol2"/>
   <use transform="matrix(2.71154E-14 -1.02382 1 2.64845E-14 -1365.44 3458.41)" x="816.501" y="1569.454" width="44.999" height="24.999" xlink:href="#Symbol2"/>
   <use transform="matrix(2.71154E-14 -1.02382 3.27276 8.66775E-14 -4938.83 3234.41)" x="816.501" y="1569.454" width="44.999" height="24.999" xlink:href="#Symbol2"/>
   <use transform="matrix(2.71154E-14 -1.02382 1 2.64845E-14 -1318.44 3191.42)" x="816.501" y="1569.454" width="44.999" height="24.999" xlink:href="#Symbol2"/>
   <use transform="matrix(2.71154E-14 -1.02382 1.95455 5.17655E-14 -2887.99 3144.42)" x="816.501" y="1569.454" width="44.999" height="24.999" xlink:href="#Symbol2"/>
   <use transform="matrix(5.63742E-13 -21.2857 0.977264 2.58824E-14 -1353.22 19672.7)" x="816.501" y="1569.454" width="44.999" height="24.999" xlink:href="#Symbol2"/>
   <use transform="matrix(1.68051E-13 -6.34525 0.977264 2.58824E-14 -1353.22 6464.38)" x="816.501" y="1569.454" width="44.999" height="24.999" xlink:href="#Symbol2"/>
   <use transform="matrix(2.57909E-13 -9.73809 0.977264 2.58824E-14 -1353.22 8879.74)" x="816.501" y="1569.454" width="44.999" height="24.999" xlink:href="#Symbol2"/>
   <use transform="matrix(2.77455E-14 -1.04761 3.06818 8.12594E-14 -4637.95 1772.92)" x="816.501" y="1569.454" width="44.999" height="24.999" xlink:href="#Symbol2"/>
   <use transform="matrix(2.7115E-14 -1.0238 3.20455 8.4871E-14 -4806.18 1798.44)" x="816.501" y="1569.454" width="44.999" height="24.999" xlink:href="#Symbol2"/>
   <use transform="matrix(1.10352E-13 -4.16666 1 2.64845E-14 -55.473 5893.26)" x="816.501" y="1569.454" width="44.999" height="24.999" xlink:href="#Symbol2"/>
   <use transform="matrix(5.48608E-14 -2.07143 1 2.64845E-14 -55.473 4360.35)" x="816.501" y="1569.454" width="44.999" height="24.999" xlink:href="#Symbol2"/>
   <use transform="matrix(2.7115E-14 -1.0238 4.27278 1.13163E-13 -5268.86 3414.4)" x="816.501" y="1569.454" width="44.999" height="24.999" xlink:href="#Symbol2"/>
   <use transform="matrix(2.77455E-14 -1.04761 4.27278 1.13163E-13 -5339.86 3388.87)" x="816.501" y="1569.454" width="44.999" height="24.999" xlink:href="#Symbol2"/>
   <use transform="matrix(2.77455E-14 -1.04761 1.86364 4.93575E-14 -1483.2 3163.88)" x="816.501" y="1569.454" width="44.999" height="24.999" xlink:href="#Symbol2"/>
   <use transform="matrix(2.77455E-14 -1.04761 3.18181 8.42688E-14 -3532 3118.88)" x="816.501" y="1569.454" width="44.999" height="24.999" xlink:href="#Symbol2"/>
   <use transform="matrix(3.72675E-13 -14.0714 1 2.64845E-14 -56.4734 13772.4)" x="816.501" y="1569.454" width="44.999" height="24.999" xlink:href="#Symbol2"/>
   <use transform="matrix(2.79979E-13 -10.5714 1 2.64845E-14 -56.4734 10234.4)" x="816.501" y="1569.454" width="44.999" height="24.999" xlink:href="#Symbol2"/>
   <use transform="matrix(2.52232E-14 -0.952376 3.18181 8.42688E-14 -3532 2456)" x="816.501" y="1569.454" width="44.999" height="24.999" xlink:href="#Symbol2"/>
   <use transform="matrix(2.77458E-14 -1.04762 3.04545 8.06572E-14 -3339.77 2490.91)" x="816.501" y="1569.454" width="44.999" height="24.999" xlink:href="#Symbol2"/>
   <use transform="matrix(2.77458E-14 -1.04762 5.22731 1.38443E-13 -6815.38 1997.92)" x="816.501" y="1569.454" width="44.999" height="24.999" xlink:href="#Symbol2"/>
   <use transform="matrix(2.77458E-14 -1.04762 3.04545 8.06572E-14 -3339.77 1727.93)" x="816.501" y="1569.454" width="44.999" height="24.999" xlink:href="#Symbol2"/>
   <use transform="matrix(1.39042E-13 -5.24993 1 2.64845E-14 -56.4734 5388.41)" x="816.501" y="1569.454" width="44.999" height="24.999" xlink:href="#Symbol2"/>
   <use transform="matrix(2.06832E-13 -7.80953 1 2.64845E-14 -56.4734 7212.18)" x="816.501" y="1569.454" width="44.999" height="24.999" xlink:href="#Symbol2"/>
  </g>
 </g>
</svg>
