<?xml version="1.0" encoding="UTF-8"?>
<!DOCTYPE svg PUBLIC "-//W3C//DTD SVG 1.1//EN" "http://www.w3.org/Graphics/SVG/1.1/DTD/svg11.dtd">
<!-- Creator: CorelDRAW -->
<svg xmlns="http://www.w3.org/2000/svg" xml:space="preserve" width="3164px" height="1678px" version="1.1" style="shape-rendering:geometricPrecision; text-rendering:geometricPrecision; image-rendering:optimizeQuality; fill-rule:evenodd; clip-rule:evenodd"
viewBox="0 0 3164 1678.049"
 xmlns:xlink="http://www.w3.org/1999/xlink"
 xmlns:xodm="http://www.corel.com/coreldraw/odm/2003">
 <defs>
  <style type="text/css">
   <![CDATA[
    .str2 {stroke:#282829;stroke-width:5;stroke-miterlimit:2.61313}
    .str1 {stroke:#9A9DA3;stroke-width:2;stroke-miterlimit:2.61313}
    .str0 {stroke:#282829;stroke-width:3;stroke-miterlimit:2.61313}
    .fil0 {fill:#DEAF7D}
    .fil4 {fill:#C58C60}
    .fil5 {fill:#B97758}
    .fil1 {fill:#282829}
    .fil3 {fill:#919499}
    .fil2 {fill:#CFA170}
   ]]>
  </style>
 </defs>
<symbol id="Symbol4" viewBox="1560 825.525 44 27">
 <rect class="fil0" x="1559.999" y="825.524" width="44" height="27"/>
</symbol>
<symbol id="Symbol2" viewBox="1559.5 826.524 45 25">
 <rect class="fil1 str0" x="1561" y="828.024" width="42" height="22"/>
</symbol>
<symbol id="Symbol6" viewBox="1560 815.025 44 48">
 <rect class="fil2" x="1560" y="815.025" width="44" height="48"/>
</symbol>
<symbol id="Symbol3" viewBox="1560 827.274 44.001 23.501">
 <rect class="fil3 str1" x="1561" y="828.274" width="42" height="21.5"/>
</symbol>
<symbol id="Symbol1" viewBox="1559.499 40.524 45.001 1597.001">
 <rect class="fil1 str2" x="1562" y="43.019" width="40" height="1592"/>
</symbol>
<symbol id="Symbol8" viewBox="1497.5 776.025 169 126">
 <rect class="fil4" x="1497.499" y="776.025" width="169" height="126"/>
</symbol>
<symbol id="Symbol7" viewBox="1560 827.025 44 24">
 <rect class="fil5" x="1560" y="827.024" width="44" height="24"/>
</symbol>
 <g id="Layer_x0020_1">
  <metadata id="CorelCorpID_0Corel-Layer"/>
  <use transform="scale(12.3787 10.3889)" x="44.674" y="19.35" width="169" height="126" xlink:href="#Symbol8"/>
  <g id="_1976039039920">
   <use transform="scale(1 1.01476)" x="13.999" y="33" width="45.001" height="1597.001" xlink:href="#Symbol1"/>
   <use transform="scale(1 1.01319)" x="463.499" y="33.055" width="45.001" height="1597.001" xlink:href="#Symbol1"/>
   <use transform="scale(1 2.02274)" x="59" y="15.815" width="45" height="25" xlink:href="#Symbol2"/>
   <use transform="scale(1.08334 1)" x="93.115" y="33.524" width="45" height="25" xlink:href="#Symbol2"/>
   <use transform="scale(1 3.04547)" x="194.5" y="2.12" width="45" height="25" xlink:href="#Symbol2"/>
   <use transform="scale(1 4.13639)" x="238.5" y="1.165" width="45" height="25" xlink:href="#Symbol2"/>
   <use transform="scale(1.08334 1)" x="258.807" y="9.524" width="45" height="25" xlink:href="#Symbol2"/>
   <use transform="scale(1 3.04547)" x="328.5" y="10.329" width="45" height="25" xlink:href="#Symbol2"/>
   <use transform="scale(1.09525 1.97487)" x="337.236" y="28.668" width="45" height="25" xlink:href="#Symbol2"/>
   <use transform="scale(1.08334 1)" x="385.267" y="33.524" width="45" height="25" xlink:href="#Symbol2"/>
   <use transform="scale(1 4.22731)" x="103.5" y="361.621" width="45" height="25" xlink:href="#Symbol2"/>
   <use transform="scale(1.08334 1)" x="51.115" y="1629.524" width="45" height="25" xlink:href="#Symbol2"/>
   <use transform="scale(1 2.13639)" x="193.5" y="717.012" width="45" height="25" xlink:href="#Symbol2"/>
   <use transform="scale(1.11905 2.09095)" x="128.967" y="755.107" width="45" height="25" xlink:href="#Symbol2"/>
   <use transform="scale(1.08334 1)" x="385.267" y="1626.524" width="45" height="25" xlink:href="#Symbol2"/>
   <use transform="scale(4.21429 1)" x="55.212" y="1652.524" width="45" height="25" xlink:href="#Symbol2"/>
   <use transform="scale(1.08334 1)" x="93.115" y="33.524" width="45" height="25" xlink:href="#Symbol2"/>
   <use transform="scale(1 1.0465)" x="150" y="9.056" width="44.001" height="23.501" xlink:href="#Symbol3"/>
   <use transform="scale(1.0238 1.0465)" x="321.327" y="9.056" width="44.001" height="23.501" xlink:href="#Symbol3"/>
   <use transform="scale(1 1.0465)" x="374" y="31.99" width="44.001" height="23.501" xlink:href="#Symbol3"/>
   <use transform="scale(1 2.62962)" x="284" y="12.939" width="44" height="27" xlink:href="#Symbol4"/>
   <use transform="scale(1 1.74073)" x="419" y="33.334" width="44" height="27" xlink:href="#Symbol4"/>
   <use transform="scale(4.06817 56.3333)" x="69.811" y="1.865" width="44" height="27" xlink:href="#Symbol4"/>
   <use transform="scale(1.02274 11.3704)" x="233.687" y="118.293" width="44" height="27" xlink:href="#Symbol4"/>
   <use transform="scale(3.02271 0.96297)" x="93.956" y="1688.552" width="44" height="27" xlink:href="#Symbol4"/>
   <use x="104" y="58.524" width="44.001" height="23.501" xlink:href="#Symbol3"/>
   <use transform="scale(1.04761 1.02324)" x="56.273" y="79.162" width="44.001" height="23.501" xlink:href="#Symbol3"/>
   <use x="195" y="1582.524" width="44.001" height="23.501" xlink:href="#Symbol3"/>
   <use x="150" y="34.025" width="44" height="48" xlink:href="#Symbol6"/>
   <use transform="scale(0.0454461 0.479171)" x="3256.599" y="123.181" width="44" height="48" xlink:href="#Symbol6"/>
   <use transform="scale(1.02274 0.479158)" x="100.71" y="171.185" width="44" height="48" xlink:href="#Symbol6"/>
   <use transform="scale(2.04546 0.5)" x="72.355" y="160.049" width="44" height="48" xlink:href="#Symbol6"/>
   <use transform="scale(5.11368 25.8542)" x="11.537" y="4.024" width="44" height="48" xlink:href="#Symbol6"/>
   <use transform="scale(4.11368 3.97916)" x="14.342" y="337.264" width="44" height="48" xlink:href="#Symbol6"/>
   <use transform="scale(1.00001 2)" x="58.999" y="766.512" width="44" height="48" xlink:href="#Symbol6"/>
   <use transform="scale(1.00001 0.979171)" x="148.997" y="1565.635" width="44" height="48" xlink:href="#Symbol6"/>
  </g>
  <g id="_1976039035696">
   <use transform="scale(1 1.01476)" x="2670" y="32.014" width="45.001" height="1597.001" xlink:href="#Symbol1"/>
   <use transform="scale(1 1.01319)" x="3119.5" y="32.068" width="45.001" height="1597.001" xlink:href="#Symbol1"/>
   <use transform="scale(1 2.02274)" x="2715" y="15.321" width="45" height="25" xlink:href="#Symbol2"/>
   <use transform="scale(1.08334 1)" x="2544.797" y="32.524" width="45" height="25" xlink:href="#Symbol2"/>
   <use transform="scale(1 3.04547)" x="2850.501" y="1.791" width="45" height="25" xlink:href="#Symbol2"/>
   <use transform="scale(1 4.13639)" x="2894.501" y="0.923" width="45" height="25" xlink:href="#Symbol2"/>
   <use transform="scale(1.08334 1)" x="2710.489" y="8.524" width="45" height="25" xlink:href="#Symbol2"/>
   <use transform="scale(1 3.04547)" x="2984.501" y="10" width="45" height="25" xlink:href="#Symbol2"/>
   <use transform="scale(1.09525 1.97487)" x="2762.259" y="28.161" width="45" height="25" xlink:href="#Symbol2"/>
   <use transform="scale(1.08334 1)" x="2836.95" y="32.524" width="45" height="25" xlink:href="#Symbol2"/>
   <use transform="scale(1 4.22731)" x="2759.501" y="361.384" width="45" height="25" xlink:href="#Symbol2"/>
   <use transform="scale(1.08334 1)" x="2502.798" y="1628.524" width="45" height="25" xlink:href="#Symbol2"/>
   <use transform="scale(1 2.13639)" x="2849.501" y="716.544" width="45" height="25" xlink:href="#Symbol2"/>
   <use transform="scale(1.11905 2.09095)" x="2502.405" y="754.629" width="45" height="25" xlink:href="#Symbol2"/>
   <use transform="scale(1.08334 1)" x="2836.95" y="1625.524" width="45" height="25" xlink:href="#Symbol2"/>
   <use transform="scale(4.21429 1)" x="685.449" y="1651.525" width="45" height="25" xlink:href="#Symbol2"/>
   <use transform="scale(1.08334 1)" x="2544.797" y="32.524" width="45" height="25" xlink:href="#Symbol2"/>
   <use transform="scale(1 1.0465)" x="2806.001" y="8.101" width="44.001" height="23.501" xlink:href="#Symbol3"/>
   <use transform="scale(1.02382 1.0465)" x="2915.532" y="8.101" width="44.001" height="23.501" xlink:href="#Symbol3"/>
   <use transform="scale(1 1.0465)" x="3030.001" y="31.035" width="44.001" height="23.501" xlink:href="#Symbol3"/>
   <use transform="scale(1 2.62962)" x="2940.001" y="12.559" width="44" height="27" xlink:href="#Symbol4"/>
   <use transform="scale(1 1.74073)" x="3075.001" y="32.76" width="44" height="27" xlink:href="#Symbol4"/>
   <use transform="scale(4.06817 56.3333)" x="722.684" y="1.847" width="44" height="27" xlink:href="#Symbol4"/>
   <use transform="scale(1.02274 11.3704)" x="2830.643" y="118.205" width="44" height="27" xlink:href="#Symbol4"/>
   <use transform="scale(3.02271 0.96297)" x="972.638" y="1687.513" width="44" height="27" xlink:href="#Symbol4"/>
   <use x="2760.001" y="57.524" width="44.001" height="23.501" xlink:href="#Symbol3"/>
   <use transform="scale(1.04761 1.02324)" x="2591.569" y="78.185" width="44.001" height="23.501" xlink:href="#Symbol3"/>
   <use x="2851.001" y="1581.524" width="44.001" height="23.501" xlink:href="#Symbol3"/>
   <use x="2806.001" y="33.025" width="44" height="48" xlink:href="#Symbol6"/>
   <use transform="scale(0.0454461 0.479171)" x="61699.437" y="121.094" width="44" height="48" xlink:href="#Symbol6"/>
   <use transform="scale(1.02274 0.479158)" x="2697.665" y="169.099" width="44" height="48" xlink:href="#Symbol6"/>
   <use transform="scale(2.04546 0.5)" x="1370.841" y="158.05" width="44" height="48" xlink:href="#Symbol6"/>
   <use transform="scale(5.11368 25.8542)" x="530.928" y="3.985" width="44" height="48" xlink:href="#Symbol6"/>
   <use transform="scale(4.11368 3.97916)" x="659.993" y="337.013" width="44" height="48" xlink:href="#Symbol6"/>
   <use transform="scale(1.00001 2)" x="2714.964" y="766.013" width="44" height="48" xlink:href="#Symbol6"/>
   <use transform="scale(1.00001 0.979171)" x="2804.963" y="1564.614" width="44" height="48" xlink:href="#Symbol6"/>
  </g>
  <use x="688" y="1487.524" width="44.001" height="23.501" xlink:href="#Symbol3"/>
  <use x="1496" y="1439.524" width="44.001" height="23.501" xlink:href="#Symbol3"/>
  <use transform="scale(1.04762 1)" x="1770.628" y="247.524" width="44.001" height="23.501" xlink:href="#Symbol3"/>
  <use transform="scale(2.07143 0.976735)" x="873.276" y="181.265" width="44.001" height="23.501" xlink:href="#Symbol3"/>
  <use transform="scale(1.0238 1)" x="2206.452" y="247.524" width="44.001" height="23.501" xlink:href="#Symbol3"/>
  <use transform="scale(1.07143 1)" x="2064.467" y="296.524" width="44.001" height="23.501" xlink:href="#Symbol3"/>
  <use transform="scale(1.0238 1)" x="2118.545" y="223.524" width="44.001" height="23.501" xlink:href="#Symbol3"/>
  <use transform="scale(1.0238 1)" x="801.887" y="223.524" width="44.001" height="23.501" xlink:href="#Symbol3"/>
  <use x="509" y="200.025" width="44" height="24" xlink:href="#Symbol7"/>
  <use transform="scale(2.02272 11.9167)" x="251.641" y="18.8" width="44" height="24" xlink:href="#Symbol7"/>
  <use transform="scale(1 41.7083)" x="509" y="12.205" width="44" height="24" xlink:href="#Symbol7"/>
  <use transform="scale(1.02272 4.95834)" x="540.714" y="280.543" width="44" height="24" xlink:href="#Symbol7"/>
  <use transform="scale(1.02272 2.95834)" x="584.714" y="462.092" width="44" height="24" xlink:href="#Symbol7"/>
  <use transform="scale(1.02272 1)" x="628.714" y="1343.025" width="44" height="24" xlink:href="#Symbol7"/>
  <use transform="scale(4.06817 6)" x="169.118" y="223.838" width="44" height="24" xlink:href="#Symbol7"/>
  <use transform="scale(3.06817 1.04166)" x="238.579" y="1426.596" width="44" height="24" xlink:href="#Symbol7"/>
  <use transform="scale(1.02272 4)" x="847.738" y="335.757" width="44" height="24" xlink:href="#Symbol7"/>
  <use transform="scale(1.02272 5)" x="891.738" y="268.605" width="44" height="24" xlink:href="#Symbol7"/>
  <use transform="scale(1.02272 6)" x="935.738" y="227.838" width="44" height="24" xlink:href="#Symbol7"/>
  <use transform="scale(2.02271 4.95834)" x="495.376" y="280.543" width="44" height="24" xlink:href="#Symbol7"/>
  <use transform="scale(9.2045 3.95834)" x="118.529" y="357.48" width="44" height="24" xlink:href="#Symbol7"/>
  <use transform="scale(10.2272 1.97918)" x="137.379" y="703.081" width="44" height="24" xlink:href="#Symbol7"/>
  <use transform="scale(6.09089 2.95834)" x="260.389" y="486.43" width="44" height="24" xlink:href="#Symbol7"/>
  <use transform="scale(4.08248 5.95834)" x="454.137" y="229.431" width="44" height="24" xlink:href="#Symbol7"/>
  <use transform="scale(4.11361 1.95834)" x="461.638" y="686.308" width="44" height="24" xlink:href="#Symbol7"/>
  <use transform="scale(5.09088 4.95834)" x="408.378" y="280.543" width="44" height="24" xlink:href="#Symbol7"/>
  <use transform="scale(0.999987 4.00001)" x="2259.031" y="335.756" width="44" height="24" xlink:href="#Symbol7"/>
  <use transform="scale(3.0909 5.95836)" x="745.09" y="217.514" width="44" height="24" xlink:href="#Symbol7"/>
  <use transform="scale(1.04545 0.999998)" x="2245.914" y="1272.026" width="44" height="24" xlink:href="#Symbol7"/>
  <use transform="scale(2.04544 2.95834)" x="1148.411" y="486.431" width="44" height="24" xlink:href="#Symbol7"/>
  <use transform="scale(1.02272 6.91667)" x="2384.806" y="194.317" width="44" height="24" xlink:href="#Symbol7"/>
  <use transform="scale(1.99999 4.95833)" x="1242.006" y="280.543" width="44" height="24" xlink:href="#Symbol7"/>
  <use transform="scale(2.22727 12.875)" x="1154.776" y="93.284" width="44" height="24" xlink:href="#Symbol7"/>
  <use transform="scale(1.22727 36.75)" x="2132.376" y="8.681" width="44" height="24" xlink:href="#Symbol7"/>
  <use transform="scale(2.22727 4.95833)" x="1154.776" y="40.342" width="44" height="24" xlink:href="#Symbol7"/>
  <use transform="scale(0.977266 1.99999)" x="2587.833" y="100.013" width="44" height="24" xlink:href="#Symbol7"/>
  <use transform="scale(3.0999 1.04166)" x="771.96" y="192.026" width="44" height="24" xlink:href="#Symbol7"/>
  <use transform="scale(0.977266 1.99999)" x="2404.668" y="100.013" width="44" height="24" xlink:href="#Symbol7"/>
  <use transform="scale(1.04545 2.95833)" x="2203.841" y="67.614" width="44" height="24" xlink:href="#Symbol7"/>
  <use transform="scale(0.999989 2.95833)" x="2169.025" y="83.502" width="44" height="24" xlink:href="#Symbol7"/>
  <use transform="scale(1.02271 0.958339)" x="2164.834" y="333.937" width="44" height="24" xlink:href="#Symbol7"/>
  <use transform="scale(1.02271 0.999997)" x="2208.835" y="296.026" width="44" height="24" xlink:href="#Symbol7"/>
  <use transform="scale(0.999989 2.95833)" x="2125.024" y="67.952" width="44" height="24" xlink:href="#Symbol7"/>
  <use transform="scale(3.06817 1.95834)" x="619.261" y="102.651" width="44" height="24" xlink:href="#Symbol7"/>
  <use transform="scale(2.04545 0.958339)" x="994.892" y="209.764" width="44" height="24" xlink:href="#Symbol7"/>
  <use transform="scale(2.04545 0.958339)" x="928.891" y="258.807" width="44" height="24" xlink:href="#Symbol7"/>
  <use transform="scale(1.02272 1.04169)" x="1857.783" y="260.177" width="44" height="24" xlink:href="#Symbol7"/>
  <use transform="scale(2.04546 2.04168)" x="884.888" y="132.746" width="44" height="24" xlink:href="#Symbol7"/>
  <use transform="scale(1.02272 1.04169)" x="1725.782" y="260.177" width="44" height="24" xlink:href="#Symbol7"/>
  <use transform="scale(1.02272 1.95836)" x="1769.782" y="114.394" width="44" height="24" xlink:href="#Symbol7"/>
  <use transform="scale(5.11362 2.95836)" x="309.957" y="67.952" width="44" height="24" xlink:href="#Symbol7"/>
  <use transform="scale(14.2954 2.95836)" x="63.797" y="67.952" width="44" height="24" xlink:href="#Symbol7"/>
  <use transform="scale(1.02272 1.95836)" x="1506.759" y="102.65" width="44" height="24" xlink:href="#Symbol7"/>
  <use transform="scale(1.06818 1.99999)" x="809.786" y="111.513" width="44" height="24" xlink:href="#Symbol7"/>
  <use transform="scale(2.06817 1.99999)" x="419.211" y="135.513" width="44" height="24" xlink:href="#Symbol7"/>
  <use transform="scale(1.02272 1.04166)" x="847.736" y="306.267" width="44" height="24" xlink:href="#Symbol7"/>
  <use transform="scale(1.02272 3.99999)" x="803.736" y="68.007" width="44" height="24" xlink:href="#Symbol7"/>
  <use transform="scale(1.04545 4.04165)" x="743.223" y="72.997" width="44" height="24" xlink:href="#Symbol7"/>
  <use transform="scale(1 7.95832)" x="732.999" y="25.26" width="44" height="24" xlink:href="#Symbol7"/>
  <use transform="scale(1.04545 5.95833)" x="657.135" y="33.739" width="44" height="24" xlink:href="#Symbol7"/>
  <use transform="scale(1.02272 3.95831)" x="627.735" y="50.786" width="44" height="24" xlink:href="#Symbol7"/>
  <use transform="scale(1 1.99999)" x="597.999" y="112.013" width="44" height="24" xlink:href="#Symbol7"/>
  <use transform="scale(7.42857 0.954554)" x="67.019" y="185" width="45" height="25" xlink:href="#Symbol2"/>
  <use transform="scale(1.02382 1)" x="539.611" y="200.524" width="45" height="25" xlink:href="#Symbol2"/>
  <use transform="scale(1.02382 3.27276)" x="758.4" y="59.312" width="45" height="25" xlink:href="#Symbol2"/>
  <use transform="scale(1.02382 1)" x="800.399" y="247.525" width="45" height="25" xlink:href="#Symbol2"/>
  <use transform="scale(1.02382 1.95455)" x="846.306" y="90.093" width="45" height="25" xlink:href="#Symbol2"/>
  <use transform="scale(21.2857 0.977264)" x="41.44" y="181.178" width="45" height="25" xlink:href="#Symbol2"/>
  <use transform="scale(6.34525 0.977264)" x="298.094" y="181.178" width="45" height="25" xlink:href="#Symbol2"/>
  <use transform="scale(9.73809 0.977264)" x="230.681" y="181.178" width="45" height="25" xlink:href="#Symbol2"/>
  <use transform="scale(1.04761 3.06818)" x="2154.838" y="56.686" width="45" height="25" xlink:href="#Symbol2"/>
  <use transform="scale(1.0238 3.20455)" x="2161.022" y="68.564" width="45" height="25" xlink:href="#Symbol2"/>
  <use transform="scale(4.16666 1)" x="164.1" y="1510.525" width="45" height="25" xlink:href="#Symbol2"/>
  <use transform="scale(2.07143 1)" x="244.224" y="1510.525" width="45" height="25" xlink:href="#Symbol2"/>
  <use transform="scale(1.0238 4.27278)" x="582.596" y="335.522" width="45" height="25" xlink:href="#Symbol2"/>
  <use transform="scale(1.04761 4.27278)" x="612.278" y="318.905" width="45" height="25" xlink:href="#Symbol2"/>
  <use transform="scale(1.04761 1.86364)" x="827.053" y="771.733" width="45" height="25" xlink:href="#Symbol2"/>
  <use transform="scale(1.04761 3.18181)" x="870.008" y="458.309" width="45" height="25" xlink:href="#Symbol2"/>
  <use transform="scale(14.0714 1)" x="63.383" y="1509.524" width="45" height="25" xlink:href="#Symbol2"/>
  <use transform="scale(10.5714 1)" x="148.716" y="1509.524" width="45" height="25" xlink:href="#Symbol2"/>
  <use transform="scale(0.952376 3.18181)" x="1571.408" y="458.309" width="45" height="25" xlink:href="#Symbol2"/>
  <use transform="scale(1.04762 3.04545)" x="1469.448" y="471.674" width="45" height="25" xlink:href="#Symbol2"/>
  <use transform="scale(1.04762 5.22731)" x="1940.037" y="264.989" width="45" height="25" xlink:href="#Symbol2"/>
  <use transform="scale(1.04762 3.04545)" x="2197.763" y="471.674" width="45" height="25" xlink:href="#Symbol2"/>
  <use transform="scale(5.24993 1)" x="394.886" y="1509.524" width="45" height="25" xlink:href="#Symbol2"/>
  <use transform="scale(7.80953 1)" x="299.542" y="1509.524" width="45" height="25" xlink:href="#Symbol2"/>
 </g>
</svg>
